<?xml version="1.0" standalone="no"?>
<!DOCTYPE svg PUBLIC "-//W3C//DTD SVG 20010904//EN"
 "http://www.w3.org/TR/2001/REC-SVG-20010904/DTD/svg10.dtd">
<svg version="1.0" xmlns="http://www.w3.org/2000/svg"
 width="512.000000pt" height="512.000000pt" viewBox="0 0 512.000000 512.000000"
 preserveAspectRatio="xMidYMid meet">

<g transform="translate(0.000000,512.000000) scale(0.100000,-0.100000)"
fill="#000000" stroke="none">
<path d="M338 4790 c-168 -29 -303 -168 -328 -337 -13 -92 -13 -2734 0 -2826
25 -173 160 -308 337 -337 33 -6 367 -10 771 -10 l714 0 -6 -28 c-3 -15 -33
-191 -66 -392 -33 -201 -63 -378 -66 -395 -4 -19 -34 -59 -79 -105 -40 -41
-80 -90 -90 -109 -37 -74 4 -188 82 -227 37 -18 73 -19 953 -19 880 0 916 1
953 19 45 22 85 78 94 129 11 72 -3 102 -91 196 -51 53 -86 99 -90 117 -3 16
-33 193 -66 394 -33 201 -63 377 -66 393 l-6 27 714 0 c442 0 737 4 777 10
170 28 306 166 331 336 13 93 13 2734 0 2827 -25 172 -159 309 -331 337 -77
12 -4368 12 -4441 0z m4508 -185 c30 -19 60 -49 79 -79 l30 -49 3 -1239 2
-1238 -2400 0 -2400 0 0 1225 c0 1334 -3 1254 55 1331 13 18 48 44 77 58 l52
26 2226 -2 2227 -3 49 -30z m112 -2883 c-3 -112 -5 -122 -33 -168 -19 -30 -49
-60 -79 -79 l-49 -30 -2237 0 -2237 0 -49 30 c-30 19 -60 49 -79 79 -28 46
-30 56 -33 168 l-4 118 2402 0 2402 0 -4 -118z m-1748 -879 c40 -241 79 -451
87 -468 8 -16 49 -64 90 -107 52 -52 74 -81 70 -92 -6 -15 -90 -16 -898 -14
-711 2 -893 6 -897 16 -2 7 30 47 71 90 41 42 82 91 91 109 9 18 48 226 88
468 l72 435 577 0 576 0 73 -437z"/>
<path d="M1537 4466 c-62 -17 -116 -61 -147 -122 l-25 -48 0 -936 0 -936 26
-49 c32 -62 93 -110 159 -124 71 -15 1949 -15 2020 0 66 14 127 62 159 124
l26 49 0 936 0 936 -26 49 c-32 62 -93 110 -159 124 -79 17 -1969 14 -2033 -3z
m2038 -171 l25 -24 0 -491 c0 -390 -3 -490 -12 -484 -7 4 -45 34 -85 66 -91
74 -142 98 -213 98 -84 0 -128 -26 -261 -156 -97 -96 -124 -117 -148 -117 -25
0 -61 30 -220 185 -105 102 -208 194 -228 203 -55 26 -122 30 -181 11 -63 -21
-79 -38 -447 -474 l-280 -331 -3 746 -2 747 22 23 21 23 994 0 994 0 24 -25z
m-1212 -856 c12 -6 108 -96 212 -198 198 -196 221 -211 305 -211 77 0 111 20
235 141 123 119 149 139 184 139 11 0 83 -50 160 -112 l141 -111 0 -320 c0
-316 0 -321 -22 -344 l-21 -23 -996 0 -995 0 -23 22 c-18 16 -23 32 -23 67 0
46 1 47 376 491 207 245 386 450 397 457 28 16 43 16 70 2z"/>
<path d="M3128 4226 c-139 -37 -227 -180 -198 -320 31 -149 180 -249 324 -217
112 25 192 105 217 217 31 140 -60 283 -203 321 -62 16 -79 16 -140 -1z m132
-161 c16 -9 36 -29 45 -45 31 -60 10 -137 -45 -165 -110 -57 -222 55 -165 165
29 55 105 76 165 45z"/>
<path d="M4017 4466 c-62 -17 -116 -61 -147 -122 l-25 -48 0 -921 0 -920 93
-138 c137 -203 149 -203 287 2 l90 133 3 892 c2 615 -1 907 -9 944 -27 131
-162 214 -292 178z m120 -168 c21 -20 23 -30 23 -120 l0 -98 -80 0 -80 0 0 97
c0 86 3 99 22 120 28 30 83 31 115 1z m23 -978 l0 -600 -80 0 -80 0 0 600 0
600 80 0 80 0 0 -600z m0 -792 c0 -28 -65 -148 -80 -148 -15 0 -80 120 -80
148 l0 32 80 0 80 0 0 -32z"/>
<path d="M2495 1111 c-70 -18 -116 -55 -151 -121 -16 -30 -19 -58 -19 -190 0
-132 3 -160 19 -190 47 -89 108 -124 216 -124 108 0 169 35 216 124 16 30 19
58 19 190 0 165 -6 191 -59 248 -48 53 -164 83 -241 63z m127 -168 c16 -14 18
-33 18 -141 0 -149 -7 -162 -78 -162 -76 0 -82 12 -82 158 0 103 3 129 17 144
21 24 99 25 125 1z"/>
</g>
</svg>
